<?xml version="1.0" encoding="UTF-8" standalone="no"?>
<!DOCTYPE svg PUBLIC "-//W3C//DTD SVG 1.1//EN"
 "http://www.w3.org/Graphics/SVG/1.1/DTD/svg11.dtd">
<!-- Generated by graphviz version 8.0.1 (0)
 -->
<!-- Title: D Pages: 1 -->
<svg width="170pt" height="170pt"
 viewBox="0.00 0.00 170.00 170.00" xmlns="http://www.w3.org/2000/svg" xmlns:xlink="http://www.w3.org/1999/xlink">
<g id="graph0" class="graph" transform="scale(1 1) rotate(0) translate(4 166)">
<title>D</title>
<!-- processor -->
<g id="node1" class="node">
<title>processor</title>
<polygon fill="none" stroke="#928374" points="72,-162 0,-162 0,-90 72,-90 72,-162"/>
<text text-anchor="middle" x="36" y="-122.3" font-family="Times,serif" font-size="14.00" fill="#ebdbb2">processor</text>
</g>
<!-- memory -->
<g id="node2" class="node">
<title>memory</title>
<polygon fill="none" stroke="#928374" points="162,-162 90,-162 90,-90 162,-90 162,-162"/>
<text text-anchor="middle" x="126" y="-122.3" font-family="Times,serif" font-size="14.00" fill="#ebdbb2">memory</text>
</g>
<!-- processor&#45;&gt;memory -->
<g id="edge1" class="edge">
<title>processor&#45;&gt;memory</title>
<path fill="none" stroke="#b8bb26" d="M72.35,-132.64C75.71,-132.73 79.13,-132.76 82.55,-132.75"/>
<polygon fill="#b8bb26" stroke="#b8bb26" points="89.52,-132.64 82.57,-135.9 86.02,-132.69 82.52,-132.75 82.52,-132.75 82.52,-132.75 86.02,-132.69 82.47,-129.6 89.52,-132.64 89.52,-132.64"/>
</g>
<!-- I/O facilities -->
<g id="node3" class="node">
<title>I/O facilities</title>
<polygon fill="none" stroke="#928374" points="162,-72 0,-72 0,0 162,0 162,-72"/>
<text text-anchor="middle" x="81" y="-32.3" font-family="Times,serif" font-size="14.00" fill="#ebdbb2">I/O facilities</text>
</g>
<!-- processor&#45;&gt;I/O facilities -->
<g id="edge2" class="edge">
<title>processor&#45;&gt;I/O facilities</title>
<path fill="none" stroke="#b8bb26" d="M61.73,-89.52C63.6,-85.92 65.44,-82.24 67.21,-78.58"/>
<polygon fill="#b8bb26" stroke="#b8bb26" points="70.09,-72.46 69.96,-80.14 68.6,-75.63 67.11,-78.79 67.11,-78.79 67.11,-78.79 68.6,-75.63 64.26,-77.45 70.09,-72.46 70.09,-72.46"/>
</g>
<!-- memory&#45;&gt;processor -->
<g id="edge3" class="edge">
<title>memory&#45;&gt;processor</title>
<path fill="none" stroke="#b8bb26" d="M89.65,-119.36C86.29,-119.27 82.87,-119.24 79.45,-119.25"/>
<polygon fill="#b8bb26" stroke="#b8bb26" points="72.48,-119.36 79.43,-116.1 75.98,-119.31 79.48,-119.25 79.48,-119.25 79.48,-119.25 75.98,-119.31 79.53,-122.4 72.48,-119.36 72.48,-119.36"/>
</g>
<!-- memory&#45;&gt;I/O facilities -->
<g id="edge4" class="edge">
<title>memory&#45;&gt;I/O facilities</title>
<path fill="none" stroke="#b8bb26" d="M115.1,-89.56C113.42,-85.92 111.64,-82.2 109.8,-78.5"/>
<polygon fill="#b8bb26" stroke="#b8bb26" points="106.65,-72.31 112.63,-77.13 108.24,-75.43 109.82,-78.55 109.82,-78.55 109.82,-78.55 108.24,-75.43 107.02,-79.98 106.65,-72.31 106.65,-72.31"/>
</g>
<!-- I/O facilities&#45;&gt;processor -->
<g id="edge5" class="edge">
<title>I/O facilities&#45;&gt;processor</title>
<path fill="none" stroke="#b8bb26" d="M55.27,-72.48C53.4,-76.08 51.56,-79.76 49.79,-83.42"/>
<polygon fill="#b8bb26" stroke="#b8bb26" points="46.91,-89.54 47.04,-81.86 48.4,-86.37 49.89,-83.21 49.89,-83.21 49.89,-83.21 48.4,-86.37 52.74,-84.55 46.91,-89.54 46.91,-89.54"/>
</g>
<!-- I/O facilities&#45;&gt;memory -->
<g id="edge6" class="edge">
<title>I/O facilities&#45;&gt;memory</title>
<path fill="none" stroke="#b8bb26" d="M91.9,-72.44C93.58,-76.08 95.36,-79.8 97.2,-83.5"/>
<polygon fill="#b8bb26" stroke="#b8bb26" points="100.35,-89.69 94.37,-84.87 98.76,-86.57 97.18,-83.45 97.18,-83.45 97.18,-83.45 98.76,-86.57 99.98,-82.02 100.35,-89.69 100.35,-89.69"/>
</g>
</g>
</svg>
