<?xml version="1.0" encoding="UTF-8" standalone="no"?>
<!DOCTYPE svg PUBLIC "-//W3C//DTD SVG 1.1//EN"
 "http://www.w3.org/Graphics/SVG/1.1/DTD/svg11.dtd">
<!-- Generated by graphviz version 8.0.1 (0)
 -->
<!-- Title: D Pages: 1 -->
<svg width="251pt" height="188pt"
 viewBox="0.00 0.00 250.50 188.10" xmlns="http://www.w3.org/2000/svg" xmlns:xlink="http://www.w3.org/1999/xlink">
<g id="graph0" class="graph" transform="scale(1 1) rotate(0) translate(4 184.1)">
<title>D</title>
<!-- cpu -->
<g id="node1" class="node">
<title>cpu</title>
<polygon fill="none" stroke="#928374" points="72,-162 0,-162 0,-90 72,-90 72,-162"/>
<text text-anchor="middle" x="36" y="-122.3" font-family="Times,serif" font-size="14.00" fill="#ebdbb2">processor</text>
</g>
<!-- im -->
<g id="node2" class="node">
<title>im</title>
<polygon fill="none" stroke="#928374" points="242.5,-180.1 117.5,-180.1 117.5,-151.1 242.5,-151.1 242.5,-180.1"/>
<text text-anchor="middle" x="180" y="-161.9" font-family="Times,serif" font-size="14.00" fill="#ebdbb2">instruction memory</text>
</g>
<!-- cpu&#45;&gt;im -->
<g id="edge1" class="edge">
<title>cpu&#45;&gt;im</title>
<path fill="none" stroke="#b8bb26" d="M72.24,-142.21C83.98,-146.01 97.42,-149.95 110.74,-153.54"/>
<polygon fill="#b8bb26" stroke="#b8bb26" points="117.26,-155.27 109.68,-156.52 113.88,-154.37 110.49,-153.48 110.49,-153.48 110.49,-153.48 113.88,-154.37 111.3,-150.43 117.26,-155.27 117.26,-155.27"/>
</g>
<!-- dm -->
<g id="node3" class="node">
<title>dm</title>
<polygon fill="none" stroke="#928374" points="224.5,-122.5 135.5,-122.5 135.5,-93.5 224.5,-93.5 224.5,-122.5"/>
<text text-anchor="middle" x="180" y="-104.3" font-family="Times,serif" font-size="14.00" fill="#ebdbb2">data memory</text>
</g>
<!-- cpu&#45;&gt;dm -->
<g id="edge2" class="edge">
<title>cpu&#45;&gt;dm</title>
<path fill="none" stroke="#b8bb26" d="M72.33,-127.42C89.35,-126.15 109.92,-123.78 128.51,-121.01"/>
<polygon fill="#b8bb26" stroke="#b8bb26" points="135.25,-119.97 128.81,-124.15 131.79,-120.5 128.33,-121.03 128.33,-121.03 128.33,-121.03 131.79,-120.5 127.86,-117.92 135.25,-119.97 135.25,-119.97"/>
</g>
<!-- io -->
<g id="node4" class="node">
<title>io</title>
<polygon fill="none" stroke="#928374" points="162,-72 0,-72 0,0 162,0 162,-72"/>
<text text-anchor="middle" x="81" y="-32.3" font-family="Times,serif" font-size="14.00" fill="#ebdbb2">I/O facilities</text>
</g>
<!-- cpu&#45;&gt;io -->
<g id="edge3" class="edge">
<title>cpu&#45;&gt;io</title>
<path fill="none" stroke="#b8bb26" d="M61.73,-89.52C63.6,-85.92 65.44,-82.24 67.21,-78.58"/>
<polygon fill="#b8bb26" stroke="#b8bb26" points="70.09,-72.46 69.96,-80.14 68.6,-75.63 67.11,-78.79 67.11,-78.79 67.11,-78.79 68.6,-75.63 64.26,-77.45 70.09,-72.46 70.09,-72.46"/>
</g>
<!-- im&#45;&gt;cpu -->
<g id="edge6" class="edge">
<title>im&#45;&gt;cpu</title>
<path fill="none" stroke="#b8bb26" d="M147.78,-150.7C127.51,-143.98 101.11,-136.6 79.05,-131.43"/>
<polygon fill="#b8bb26" stroke="#b8bb26" points="72.36,-129.91 79.89,-128.39 75.77,-130.68 79.18,-131.46 79.18,-131.46 79.18,-131.46 75.77,-130.68 78.48,-134.53 72.36,-129.91 72.36,-129.91"/>
</g>
<!-- dm&#45;&gt;cpu -->
<g id="edge7" class="edge">
<title>dm&#45;&gt;cpu</title>
<path fill="none" stroke="#b8bb26" d="M135.23,-107.27C117.34,-108.87 96.81,-111.44 79.09,-114.3"/>
<polygon fill="#b8bb26" stroke="#b8bb26" points="72.19,-115.45 78.57,-111.19 75.64,-114.87 79.09,-114.29 79.09,-114.29 79.09,-114.29 75.64,-114.87 79.61,-117.4 72.19,-115.45 72.19,-115.45"/>
</g>
<!-- dm&#45;&gt;io -->
<g id="edge8" class="edge">
<title>dm&#45;&gt;io</title>
<path fill="none" stroke="#b8bb26" d="M167.91,-93.01C162.37,-88.07 155.36,-82.34 147.73,-76.46"/>
<polygon fill="#b8bb26" stroke="#b8bb26" points="142.36,-72.38 149.84,-74.11 145.15,-74.5 147.93,-76.62 147.93,-76.62 147.93,-76.62 145.15,-74.5 146.02,-79.12 142.36,-72.38 142.36,-72.38"/>
</g>
<!-- io&#45;&gt;cpu -->
<g id="edge4" class="edge">
<title>io&#45;&gt;cpu</title>
<path fill="none" stroke="#b8bb26" d="M55.27,-72.48C53.4,-76.08 51.56,-79.76 49.79,-83.42"/>
<polygon fill="#b8bb26" stroke="#b8bb26" points="46.91,-89.54 47.04,-81.86 48.4,-86.37 49.89,-83.21 49.89,-83.21 49.89,-83.21 48.4,-86.37 52.74,-84.55 46.91,-89.54 46.91,-89.54"/>
</g>
<!-- io&#45;&gt;dm -->
<g id="edge5" class="edge">
<title>io&#45;&gt;dm</title>
<path fill="none" stroke="#b8bb26" d="M119.62,-72.36C127.4,-78.18 135.54,-83.99 143.25,-89.19"/>
<polygon fill="#b8bb26" stroke="#b8bb26" points="149.04,-93.04 141.47,-91.79 146.13,-91.1 143.21,-89.17 143.21,-89.17 143.21,-89.17 146.13,-91.1 144.96,-86.54 149.04,-93.04 149.04,-93.04"/>
</g>
</g>
</svg>
